<svg width="457" height="457" viewBox="0 0 457 457" fill="none" xmlns="http://www.w3.org/2000/svg">
<path d="M122.943 176.986V183.841H129.798V176.986V170.141H122.943V176.986Z" fill="#EBEBEB"/>
<path d="M129.798 135.885H122.943V142.74H129.798V135.885Z" fill="#EBEBEB"/>
<path d="M172.134 211.316H165.279V218.171H172.134V211.316Z" fill="#EBEBEB"/>
<path d="M129.798 149.585V156.431H122.943V163.286H129.798V170.141H136.653H143.499V176.987H150.354V170.141H157.2V163.286V156.431H150.354V163.286H143.499H136.653V156.431V149.585V142.73H129.798V149.585Z" fill="#EBEBEB"/>
<path d="M143.499 135.885H136.653V142.731H143.499H150.354V135.885H143.499Z" fill="#EBEBEB"/>
<path d="M174.328 190.962H178.011V184.107H174.328H170.654V190.962H174.328Z" fill="#EBEBEB"/>
<path d="M157.208 142.73H150.353V149.585H157.208V142.73Z" fill="#EBEBEB"/>
<path d="M205.166 170.141H198.311V176.996H205.166V170.141Z" fill="#EBEBEB"/>
<path d="M212.021 94.7715H205.166V101.626H212.021V94.7715Z" fill="#EBEBEB"/>
<path d="M170.909 149.585V142.73H177.755V135.884H170.909V129.029H164.054V135.884H157.199V142.73H164.054V149.585V156.431V163.286V170.141H170.909V163.286V156.431H177.755V149.585H170.909Z" fill="#EBEBEB"/>
<path d="M205.166 218.097H212.012V211.242H205.166H198.311V218.097H205.166Z" fill="#EBEBEB"/>
<path d="M198.311 94.7715H191.456V101.626H198.311V94.7715Z" fill="#EBEBEB"/>
<path d="M196.602 149.586V142.731H189.747V135.885H182.892V142.731V149.586H176.046V156.431H182.892H189.747V149.586H196.602Z" fill="#EBEBEB"/>
<path d="M235.273 135.885H228.418V142.74H235.273V135.885Z" fill="#EBEBEB"/>
<path d="M164.256 170.141H157.401V176.996H164.256V170.141Z" fill="#EBEBEB"/>
<path d="M191.456 129.029V122.174H198.311V115.328H205.166H212.012V108.473H205.166V101.627H198.311V108.473H191.456V115.328H184.61V122.174H177.755V129.029H184.61H191.456Z" fill="#EBEBEB"/>
<path d="M191.456 176.986V170.14H198.311V163.285H191.456H184.61V170.14H177.755V176.986H184.61H191.456Z" fill="#EBEBEB"/>
<path d="M212.012 204.388V197.543H205.166H198.311V190.688H191.456V197.543H184.61V204.388H177.755H170.909V211.243H177.755H184.61H191.456V204.388H198.311V211.243H205.166V204.388H212.012Z" fill="#EBEBEB"/>
<path d="M184.61 101.626V94.7715H177.755H170.909V101.626H164.054V108.472H170.909H177.755V101.626H184.61Z" fill="#EBEBEB"/>
<path d="M184.61 108.473H177.755V115.328H184.61V108.473Z" fill="#EBEBEB"/>
<path d="M201.739 135.884H194.884V142.73V149.585V156.431H201.739H208.594V149.585H201.739V142.73H208.594V135.884H215.44V129.029H208.594V122.174H201.739V129.029V135.884Z" fill="#EBEBEB"/>
<path d="M177.764 115.328H170.909V122.183H177.764V115.328Z" fill="#EBEBEB"/>
<path d="M198.311 183.841V190.687H205.166H212.012V183.841H218.867H225.722V176.986H218.867H212.012H205.166V183.841H198.311Z" fill="#EBEBEB"/>
<path d="M235.273 156.43H228.418V163.285H235.273V156.43Z" fill="#EBEBEB"/>
<path d="M212.021 163.285H205.166V170.14H212.021V163.285Z" fill="#EBEBEB"/>
<path d="M229.141 142.73H222.295H215.44V149.585H222.295V156.431H229.141V149.585V142.73Z" fill="#EBEBEB"/>
<path d="M225.722 163.285H218.867V170.14H225.722V163.285Z" fill="#EBEBEB"/>
<path d="M150.354 204.525H170.919V176.977H143.371V183.841H136.653V190.687H143.371V197.542H136.653V204.397H143.371V204.525H143.499V211.242H136.653V224.952H143.499V218.097H150.354V204.525ZM165.636 182.259V199.388H148.507V182.259H165.636Z" fill="#EBEBEB"/>
<path d="M239.423 176.986H246.269V170.141H239.423H232.568H225.722V176.986H232.568H239.423Z" fill="#EBEBEB"/>
<path d="M239.422 149.586H246.268V142.731V135.885H239.422V142.731V149.586Z" fill="#EBEBEB"/>
<path d="M184.866 184.107H178.011V190.962V197.808H184.866V190.962V184.107Z" fill="#EBEBEB"/>
<path d="M253.124 176.986H246.269V183.841H253.124V176.986Z" fill="#EBEBEB"/>
<path d="M253.124 163.285V156.43H246.269V163.285V170.14H253.124V163.285Z" fill="#EBEBEB"/>
<path d="M129.798 211.242H122.943V218.097V224.952H129.798V218.097V211.242Z" fill="#EBEBEB"/>
<path d="M253.124 129.028V94.7715H218.867V129.028H253.124ZM224.004 123.892V99.9082H247.987V123.892H224.004Z" fill="#EBEBEB"/>
<path d="M242.841 105.045H229.14V118.746H242.841V105.045Z" fill="#EBEBEB"/>
<path d="M253.124 190.688H218.867V224.953H253.124V190.688ZM224.004 219.808V195.833H247.987V219.808H224.004Z" fill="#EBEBEB"/>
<path d="M242.841 200.969H229.14V214.67H242.841V200.969Z" fill="#EBEBEB"/>
<path d="M122.861 94.7715V129.028H157.118V94.7715H122.861ZM151.981 99.9082V123.892H127.961V99.9082H151.981Z" fill="#EBEBEB"/>
<path d="M146.834 105.045H133.133V118.746H146.834V105.045Z" fill="#EBEBEB"/>
<path d="M68.0914 229.732C68.5331 227.996 67.4833 226.23 65.7466 225.788C64.0099 225.346 62.2439 226.396 61.8022 228.133C61.3605 229.869 62.4103 231.635 64.147 232.077C65.8837 232.519 67.6497 231.469 68.0914 229.732Z" fill="#EBEBEB"/>
<path d="M58.4961 224.79C59.324 223.899 60.3239 223.186 61.4352 222.693C62.5466 222.2 63.7464 221.938 64.9621 221.921C66.1777 221.905 67.3841 222.136 68.5082 222.599C69.6323 223.062 70.6509 223.748 71.5023 224.616C73.1567 226.289 75.7433 223.702 74.0889 222.048C72.898 220.845 71.4783 219.892 69.9134 219.247C68.3485 218.601 66.6702 218.276 64.9775 218.289C63.2848 218.303 61.6119 218.656 60.0576 219.326C58.5034 219.997 57.0991 220.972 55.9277 222.194C54.31 223.894 56.8417 226.49 58.4961 224.79Z" fill="#EBEBEB"/>
<path d="M47.4549 209.688C52.3813 205.429 58.2675 202.742 64.8209 202.723C71.3906 202.646 77.7424 205.078 82.5799 209.524C84.2891 211.132 86.8848 208.564 85.1757 206.955C79.6588 201.852 72.409 199.036 64.894 199.077C57.3078 199.077 50.5625 202.193 44.8957 207.102C43.0677 208.637 45.6909 211.215 47.464 209.688H47.4549Z" fill="#EBEBEB"/>
<path d="M51.7965 218.052C53.4418 216.219 55.4489 214.746 57.6912 213.726C59.9336 212.707 62.3627 212.162 64.8258 212.127C67.2889 212.092 69.7326 212.567 72.0032 213.522C74.2737 214.477 76.322 215.892 78.0191 217.678C79.6643 219.368 82.2509 216.764 80.6149 215.118C78.581 212.991 76.132 211.305 73.4195 210.163C70.707 209.021 67.7889 208.449 64.8461 208.482C61.9034 208.514 58.9987 209.151 56.3121 210.352C53.6255 211.554 51.2144 213.294 49.2281 215.466C47.6378 217.184 50.197 219.78 51.7965 218.052Z" fill="#EBEBEB"/>
<path d="M208.484 51.5765C209.033 47.5731 203.375 44.2645 199.125 43.9263C197.096 43.7618 194.994 44.0725 193.074 43.4053C188.906 41.952 187.243 36.5777 183.185 34.8685C180.15 33.5889 176.65 34.7223 173.706 36.203C170.763 37.6837 167.857 39.5482 164.566 39.7584C161.706 39.9412 158.598 38.8444 156.094 40.2794C154.266 41.3214 153.251 43.4693 151.524 44.7397C149.796 46.0102 147.648 46.2478 145.564 46.3575C143.481 46.4672 141.314 46.4946 139.422 47.3629C137.53 48.2312 135.949 50.242 136.342 52.2894L208.484 51.5765Z" fill="#EBEBEB"/>
<path d="M99.2973 119.322C99.7908 115.73 94.7273 112.769 90.9068 112.467C89.0788 112.321 87.2508 112.595 85.4776 111.992C81.7485 110.694 80.2587 105.877 76.6209 104.342C73.8789 103.19 70.7622 104.214 68.1299 105.539C65.4976 106.864 62.8835 108.537 59.9039 108.729C57.3356 108.893 54.557 107.943 52.3085 109.195C50.6359 110.109 49.7676 112.056 48.223 113.189C46.6783 114.323 44.7498 114.533 42.8761 114.642C41.0073 114.606 39.148 114.916 37.3921 115.556C35.692 116.333 34.2845 118.143 34.6501 119.98L99.2973 119.322Z" fill="#F5F5F5"/>
<path d="M441.809 116.781C442.339 112.933 436.91 109.761 432.824 109.469C430.878 109.314 428.858 109.615 427.011 108.966C423.017 107.577 421.418 102.413 417.524 100.74C414.608 99.5156 411.254 100.603 408.43 102.029C405.606 103.455 402.809 105.237 399.655 105.447C396.913 105.621 393.925 104.597 391.521 105.941C389.693 106.937 388.779 109.003 387.143 110.218C385.507 111.434 383.423 111.663 381.421 111.772C379.419 111.882 377.345 111.9 375.526 112.741C373.707 113.582 372.19 115.483 372.574 117.467L441.809 116.781Z" fill="#F5F5F5"/>
<path d="M433.656 436.033C433.656 436.161 341.799 436.27 228.509 436.27C115.219 436.27 23.3433 436.161 23.3433 436.033C23.3433 435.905 115.164 435.795 228.5 435.795C341.836 435.795 433.656 435.895 433.656 436.033Z" fill="#263238"/>
<path d="M384.52 395.825C385.421 396.256 386.226 396.864 386.887 397.613C387.548 398.362 388.052 399.237 388.368 400.184C388.99 402.09 389.165 404.114 388.88 406.098C388.45 409.937 386.266 413.812 383.917 416.874C380.69 414.059 379.941 409.133 379.721 406.619C379.374 402.634 381.165 395.231 384.52 395.825Z" fill="#0C75FF"/>
<path d="M387.673 423.181C387.457 422.084 387.533 420.95 387.892 419.892C388.251 418.834 388.882 417.888 389.72 417.149C390.576 416.43 391.566 415.889 392.633 415.556C393.7 415.224 394.823 415.106 395.935 415.211C396.454 415.201 396.969 415.305 397.443 415.517C397.917 415.729 398.338 416.042 398.677 416.436C398.918 416.853 399.045 417.325 399.045 417.807C399.045 418.288 398.918 418.761 398.677 419.178C398.187 420.013 397.483 420.704 396.639 421.179C393.842 422.934 390.808 424.122 387.645 423.172" fill="#0C75FF"/>
<path d="M383.532 434.972C383.549 434.708 383.586 434.445 383.642 434.186C383.752 433.629 383.88 432.916 384.035 432.057C384.395 429.682 385.139 427.382 386.238 425.247C387.376 423.115 389.06 421.323 391.118 420.056C391.744 419.673 392.413 419.367 393.111 419.142C393.3 419.081 393.492 419.032 393.687 418.995C393.753 418.983 393.821 418.983 393.888 418.995C392.959 419.313 392.065 419.723 391.219 420.22C389.226 421.508 387.594 423.282 386.475 425.375C385.401 427.489 384.644 429.75 384.227 432.084C384.035 432.998 383.88 433.702 383.752 434.195C383.707 434.462 383.634 434.722 383.532 434.972Z" fill="#263238"/>
<path d="M383.651 401.582C383.667 401.697 383.667 401.814 383.651 401.929C383.651 402.185 383.651 402.505 383.715 402.916C383.761 403.776 383.807 405.019 383.861 406.572C383.962 409.644 384.035 413.884 384.017 418.592C383.999 423.299 383.88 427.54 383.752 430.611C383.697 432.146 383.633 433.353 383.578 434.267C383.578 434.669 383.578 434.998 383.514 435.254C383.512 435.371 383.497 435.488 383.468 435.601C383.455 435.486 383.455 435.369 383.468 435.254C383.468 434.998 383.468 434.669 383.468 434.258C383.468 433.344 383.523 432.128 383.56 430.602C383.633 427.53 383.715 423.29 383.733 418.592C383.752 413.894 383.734 409.653 383.66 406.582C383.66 405.064 383.615 403.84 383.606 402.926C383.606 402.523 383.606 402.194 383.606 401.939C383.606 401.818 383.621 401.699 383.651 401.582Z" fill="#263238"/>
<path d="M382.051 425.548C381.66 423.221 380.721 421.022 379.311 419.13C377.901 417.239 376.062 415.711 373.944 414.671C372.866 414.159 371.458 413.821 370.562 414.625C369.667 415.43 369.877 416.865 370.316 417.989C371.27 420.317 372.895 422.309 374.985 423.71C377.075 425.112 379.535 425.86 382.051 425.858" fill="#0C75FF"/>
<path d="M374.503 418.309C374.741 418.385 374.97 418.486 375.188 418.61C375.456 418.73 375.715 418.867 375.965 419.022C376.305 419.211 376.634 419.419 376.952 419.643C377.343 419.904 377.719 420.187 378.076 420.493C378.499 420.832 378.902 421.195 379.283 421.581C380.151 422.468 380.915 423.453 381.559 424.515C382.193 425.585 382.699 426.726 383.067 427.915C383.348 428.889 383.54 429.886 383.643 430.894C383.697 431.324 383.643 431.717 383.697 432.055C383.714 432.36 383.714 432.665 383.697 432.969C383.693 433.218 383.665 433.466 383.615 433.709C383.551 433.709 383.661 432.649 383.469 430.967C383.414 430.547 383.359 430.053 383.25 429.587C383.14 429.121 383.003 428.582 382.847 428.043C382.474 426.881 381.971 425.765 381.348 424.716C380.715 423.673 379.97 422.701 379.127 421.818C378.756 421.433 378.366 421.067 377.957 420.722C377.609 420.414 377.242 420.127 376.861 419.862C375.453 418.811 374.475 418.363 374.503 418.309Z" fill="#263238"/>
<path d="M138.982 436.041C138.713 435.188 138.502 434.318 138.352 433.436C137.406 429.263 135.993 425.21 134.138 421.353C133.714 420.565 133.335 419.754 133.005 418.922C133.568 419.622 134.046 420.386 134.431 421.198C136.477 425.021 137.912 429.141 138.681 433.409C138.875 434.273 138.976 435.155 138.982 436.041Z" fill="#263238"/>
<path d="M147.09 396.484C147.05 397.007 146.974 397.526 146.861 398.038C146.679 399.025 146.432 400.46 146.148 402.233C145.563 405.789 144.887 410.706 144.467 416.172C144.046 421.638 143.973 426.619 144.001 430.211C144.001 432.039 144.001 433.465 144.074 434.47C144.113 434.99 144.113 435.513 144.074 436.033C143.973 435.521 143.915 435.001 143.9 434.479C143.818 433.474 143.735 432.021 143.681 430.22C143.532 425.523 143.639 420.821 144.001 416.135C144.361 411.454 144.971 406.795 145.829 402.179C146.167 400.405 146.459 398.98 146.697 398.002C146.789 397.487 146.921 396.979 147.09 396.484Z" fill="#263238"/>
<path d="M160.105 419.25C159.634 420.016 159.125 420.757 158.578 421.471C157.374 423.256 156.328 425.143 155.452 427.11C154.595 429.086 153.919 431.136 153.432 433.234C153.274 434.119 153.07 434.994 152.82 435.857C152.804 434.95 152.9 434.045 153.103 433.161C153.904 428.854 155.684 424.789 158.304 421.279C158.814 420.528 159.419 419.845 160.105 419.25Z" fill="#263238"/>
<path d="M319.452 422.268C319.924 422.828 320.328 423.442 320.659 424.096C321.335 425.256 322.212 426.902 323.081 428.757C323.949 430.612 324.644 432.358 325.101 433.619C325.394 434.289 325.603 434.992 325.722 435.713C325.355 435.089 325.048 434.431 324.808 433.747C324.278 432.514 323.538 430.813 322.669 428.958C321.801 427.103 320.979 425.448 320.375 424.251C319.996 423.625 319.687 422.96 319.452 422.268Z" fill="#263238"/>
<path d="M336.269 405.578C336.229 405.981 336.149 406.379 336.032 406.766C335.84 407.616 335.593 408.686 335.291 409.965C334.688 412.707 333.948 416.418 333.39 420.604C332.833 424.79 332.577 428.62 332.476 431.38C332.431 432.697 332.394 433.793 332.367 434.662C332.38 435.066 332.349 435.47 332.275 435.868C332.206 435.47 332.172 435.066 332.175 434.662C332.175 433.885 332.129 432.76 332.175 431.371C332.23 427.752 332.496 424.138 332.97 420.549C333.443 416.957 334.127 413.395 335.017 409.883C335.364 408.54 335.675 407.461 335.931 406.721C336 406.328 336.113 405.945 336.269 405.578Z" fill="#263238"/>
<path d="M214.607 413.018C214.913 413.192 215.192 413.407 215.439 413.657C216.16 414.278 216.846 414.937 217.496 415.632C221.823 420.23 224.881 425.874 226.371 432.01C226.604 432.934 226.781 433.871 226.901 434.816C226.97 435.159 227.001 435.509 226.992 435.858C226.91 435.858 226.681 434.396 226.078 432.102C224.413 426.088 221.392 420.535 217.249 415.869C215.704 414.041 214.553 413.127 214.607 413.018Z" fill="#263238"/>
<path d="M230.446 403.293C230.485 403.725 230.485 404.159 230.446 404.591C230.446 405.505 230.446 406.702 230.446 408.119C230.446 411.099 230.565 415.212 230.958 419.745C231.351 424.278 231.955 428.346 232.466 431.28C232.713 432.678 232.923 433.848 233.088 434.753C233.192 435.175 233.253 435.607 233.271 436.042C233.116 435.634 232.994 435.216 232.905 434.789C232.695 433.985 232.43 432.806 232.137 431.344C230.611 423.7 229.93 415.911 230.108 408.119C230.108 406.62 230.2 405.377 230.273 404.582C230.288 404.147 230.346 403.716 230.446 403.293Z" fill="#263238"/>
<path d="M244.431 422.668C244.568 422.741 242.996 425.483 241.917 429.194C240.839 432.905 240.637 436.049 240.491 436.04C240.388 435.352 240.388 434.653 240.491 433.965C240.635 432.303 240.941 430.659 241.405 429.057C241.867 427.458 242.479 425.906 243.233 424.423C243.549 423.785 243.952 423.195 244.431 422.668Z" fill="#263238"/>
<path d="M57.508 349.074H46.8965V433.318H57.508V349.074Z" fill="#455A64"/>
<path d="M57.5175 433.309C57.5175 433.309 57.5175 433.163 57.5175 432.87V431.609C57.5175 430.484 57.5175 428.867 57.5175 426.765C57.5175 422.551 57.5175 416.464 57.4444 408.905C57.4444 393.778 57.3804 372.756 57.3438 349.075L57.5815 349.312H46.8968L47.1345 349.075C47.0796 385.973 47.0339 417.926 47.0065 433.309L46.8968 433.208L54.7664 433.263H56.8137H57.5175C57.5175 433.263 57.2981 433.263 56.8503 433.263H54.8303L46.8968 433.318H46.7963V433.208C46.7963 417.826 46.7232 385.872 46.6592 348.974L46.8968 348.736H57.7551V348.974C57.7551 372.738 57.6729 393.806 57.6546 408.978C57.6546 416.509 57.5998 422.578 57.5815 426.783C57.5815 428.848 57.5815 430.439 57.5815 431.572V432.806C57.5266 433.181 57.5175 433.309 57.5175 433.309Z" fill="#263238"/>
<g opacity="0.3">
<path d="M57.5085 351.121H46.897V354.631H57.5085V351.121Z" fill="black"/>
</g>
<path d="M283.276 349.074H272.664V433.318H283.276V349.074Z" fill="#455A64"/>
<path d="M283.275 433.309C283.275 433.309 283.275 433.163 283.275 432.87V431.609C283.275 430.484 283.275 428.867 283.275 426.765C283.275 422.551 283.275 416.464 283.202 408.905C283.202 393.778 283.147 372.756 283.101 349.075L283.339 349.312H272.663L272.901 349.075C272.837 385.973 272.791 417.926 272.764 433.309L272.663 433.208L280.533 433.263H282.571H283.275C283.275 433.263 283.056 433.263 282.608 433.263H280.597L272.663 433.318H272.554V433.208C272.554 417.826 272.481 385.872 272.426 348.974L272.663 348.736H283.513V348.974C283.513 372.738 283.439 393.806 283.412 408.978C283.412 416.509 283.357 422.578 283.339 426.783C283.339 428.848 283.339 430.439 283.339 431.572V432.806C283.284 433.181 283.275 433.309 283.275 433.309Z" fill="#263238"/>
<path d="M266.641 275.277H256.029V345.5H266.641V275.277Z" fill="#455A64"/>
<path d="M266.65 345.492C266.637 345.368 266.637 345.242 266.65 345.117V344.066C266.65 343.152 266.65 341.772 266.65 340.045C266.65 336.526 266.604 331.471 266.577 325.174C266.577 312.579 266.513 295.067 266.476 275.27L266.714 275.507H256.038C256.504 275.032 256.166 275.388 256.267 275.288V286.429C256.267 290.085 256.267 293.641 256.267 297.114C256.267 304.061 256.267 310.623 256.267 316.665C256.221 328.729 256.194 338.701 256.175 345.492L256.057 345.373L263.908 345.437H265.964H266.677H266.001H263.981L256.057 345.501H255.92V345.492C255.92 338.701 255.874 328.729 255.837 316.665C255.837 310.623 255.837 304.061 255.837 297.114C255.837 293.641 255.837 290.079 255.837 286.429V275.297C255.947 275.187 255.6 275.516 256.084 275.041H266.888V275.279C266.888 295.14 266.814 312.753 266.787 325.357C266.787 331.627 266.732 336.663 266.723 340.164C266.723 341.873 266.723 343.207 266.723 344.139C266.723 344.569 266.723 344.916 266.723 345.163C266.723 345.41 266.65 345.492 266.65 345.492Z" fill="#263238"/>
<path d="M77.8264 275.277H67.2148V345.5H77.8264V275.277Z" fill="#455A64"/>
<path d="M77.8362 345.492C77.8287 345.367 77.8287 345.242 77.8362 345.117C77.8362 344.861 77.8362 344.514 77.8362 344.066C77.8362 343.152 77.8362 341.772 77.8362 340.045C77.8362 336.526 77.8362 331.471 77.7631 325.174C77.7631 312.579 77.6991 295.067 77.6625 275.27L77.9002 275.507H67.2246C67.6908 275.032 67.3526 275.388 67.4531 275.288V286.429C67.4531 290.085 67.4531 293.647 67.4531 297.114C67.4531 304.061 67.4531 310.623 67.4531 316.665C67.4531 328.729 67.38 338.701 67.3617 345.492L67.2429 345.373L75.0942 345.437H77.1507H77.8636H77.1872H75.1673L67.2429 345.501H67.1332V345.492C67.1332 338.701 67.0784 328.729 67.0418 316.665C67.0418 310.623 67.0418 304.061 67.0418 297.114C67.0418 293.641 67.0418 290.079 67.0418 286.429V275.297C67.1515 275.187 66.8042 275.516 67.2886 275.041H78.0738V275.279C78.0738 295.14 77.9916 312.753 77.9641 325.357C77.9641 331.627 77.9641 336.663 77.9002 340.164C77.9002 341.873 77.9002 343.207 77.9002 344.139C77.9002 344.569 77.9002 344.916 77.9002 345.163C77.9002 345.41 77.8362 345.492 77.8362 345.492Z" fill="#263238"/>
<path d="M287.124 267.262H46.2754V278.504H287.124V267.262Z" fill="#455A64"/>
<path d="M287.123 278.505C287.123 278.505 287.123 278.277 287.123 277.82C287.123 277.363 287.123 276.677 287.123 275.754C287.123 273.926 287.123 271.102 287.123 267.263L287.187 267.336L46.3484 267.501L46.586 267.263V278.505L46.3484 278.268L216.992 278.368L268.368 278.441H282.316H285.972H287.215H285.999H282.398H268.514L217.193 278.514L46.2752 278.77H46.0376V267.025H46.2844L287.123 267.199H287.197V267.263C287.197 271.12 287.197 273.935 287.197 275.791C287.197 276.705 287.197 277.39 287.197 277.847C287.197 278.304 287.123 278.505 287.123 278.505Z" fill="#263238"/>
<path d="M287.745 284.127H46.8965V295.369H287.745V284.127Z" fill="#455A64"/>
<path d="M287.745 295.369C287.745 295.369 287.745 295.14 287.745 294.683C287.745 294.226 287.745 293.541 287.745 292.617C287.745 290.789 287.745 287.965 287.745 284.126L287.809 284.19L46.9787 284.364L47.2164 284.126V295.369L46.9787 295.131L217.531 295.222L268.907 295.286H282.855H286.511H287.754H286.547H282.946H269.053L217.732 295.359L46.9056 295.46H46.668V283.889H46.9239L287.754 284.062H287.827V284.126C287.827 287.983 287.827 290.799 287.827 292.654C287.827 293.568 287.827 294.244 287.827 294.701C287.827 295.158 287.745 295.369 287.745 295.369Z" fill="#263238"/>
<path d="M287.745 301.611H46.8965V312.854H287.745V301.611Z" fill="#455A64"/>
<path d="M287.745 312.853C287.745 312.853 287.745 312.624 287.745 312.167C287.745 311.71 287.745 311.025 287.745 310.102C287.745 308.274 287.745 305.449 287.745 301.611L287.809 301.675L46.9788 301.848L47.2164 301.611V312.853L46.9788 312.615L217.632 312.716L269.008 312.789H282.955H286.611H287.854H286.648H283.047H269.154L217.833 312.862L47.0062 312.963H46.7686V301.373H47.0245L287.854 301.547H287.927V301.62C287.927 305.477 287.927 308.292 287.927 310.147C287.927 311.061 287.927 311.738 287.927 312.204C287.927 312.67 287.745 312.853 287.745 312.853Z" fill="#263238"/>
<path d="M287.745 319.096H46.8965V330.338H287.745V319.096Z" fill="#455A64"/>
<path d="M287.745 330.339C287.745 330.339 287.745 330.111 287.745 329.654C287.745 329.197 287.745 328.511 287.745 327.588C287.745 325.76 287.745 322.936 287.745 319.097L287.809 319.17L46.9788 319.335L47.2164 319.097V330.339L46.9788 330.102L217.632 330.202L269.008 330.275H282.955H286.611H287.854H286.648H283.047H269.154L217.833 330.348L47.0062 330.449H46.7686V318.859H47.0245L287.854 319.033H287.927V319.097C287.927 322.954 287.927 325.769 287.927 327.625C287.927 328.539 287.927 329.224 287.927 329.681C287.927 330.138 287.745 330.339 287.745 330.339Z" fill="#263238"/>
<path d="M292.132 339.881H36.4409V351.123H292.132V339.881Z" fill="#455A64"/>
<path d="M292.132 351.122C292.132 351.122 292.132 350.894 292.132 350.437C292.132 349.98 292.132 349.294 292.132 348.371C292.132 346.543 292.132 343.719 292.132 339.88L292.205 339.944L36.5227 340.118L36.7604 339.88V351.122L36.5227 350.885L217.659 350.976L272.216 351.049H287.032H290.889C291.757 351.049 292.214 351.049 292.214 351.049H290.916H286.995H272.234L217.742 351.122L36.4222 351.223H36.1846V339.643H36.4314L292.114 339.816H292.178V339.88C292.178 343.737 292.178 346.552 292.178 348.408C292.178 349.322 292.178 349.998 292.178 350.455C292.178 350.912 292.132 351.122 292.132 351.122Z" fill="#263238"/>
<g opacity="0.3">
<path d="M283.276 351.121H272.664V354.631H283.276V351.121Z" fill="black"/>
</g>
<path d="M153.835 210.514L151.541 225.311L145.636 238.784L136.889 233.199L133.773 225.339L131.168 218.74C131.168 218.74 121.927 220.97 118.244 212.342C116.471 208.174 113.509 199.29 110.932 191.21C109.593 187.017 109.885 182.473 111.749 178.485C113.612 174.497 116.91 171.358 120.986 169.695L121.818 169.347C131.076 166.157 138.955 172.235 141.88 181.567L153.89 210.532" fill="#FFBDA7"/>
<path d="M131.158 218.74C135.198 217.166 138.676 214.423 141.148 210.861C141.148 210.861 141.048 218.219 132.063 220.998L131.158 218.74Z" fill="#7A4A45"/>
<path d="M116.571 197.816C116.699 198.141 116.95 198.403 117.27 198.545C117.59 198.687 117.952 198.697 118.28 198.575C118.443 198.522 118.593 198.437 118.723 198.326C118.852 198.214 118.958 198.077 119.034 197.924C119.11 197.771 119.154 197.603 119.164 197.433C119.175 197.262 119.15 197.091 119.093 196.929C118.965 196.604 118.713 196.343 118.394 196.201C118.074 196.059 117.711 196.048 117.384 196.171C117.221 196.223 117.07 196.308 116.941 196.42C116.811 196.532 116.705 196.668 116.63 196.822C116.554 196.975 116.509 197.142 116.499 197.313C116.489 197.484 116.513 197.655 116.571 197.816Z" fill="#263238"/>
<path d="M114.249 194.262C114.468 194.363 115.163 193.284 116.461 192.736C117.759 192.187 119.048 192.452 119.121 192.233C119.194 192.014 118.883 191.904 118.335 191.767C117.582 191.59 116.794 191.651 116.077 191.94C115.383 192.227 114.797 192.726 114.404 193.366C114.13 193.869 114.112 194.225 114.249 194.262Z" fill="#263238"/>
<path d="M128.206 192.626C128.335 192.951 128.586 193.213 128.905 193.355C129.225 193.497 129.588 193.507 129.915 193.385C130.079 193.333 130.23 193.249 130.361 193.138C130.491 193.026 130.598 192.89 130.675 192.736C130.752 192.583 130.797 192.416 130.808 192.244C130.818 192.073 130.795 191.901 130.738 191.739C130.607 191.416 130.356 191.156 130.037 191.014C129.718 190.872 129.356 190.86 129.028 190.981C128.865 191.032 128.713 191.116 128.583 191.228C128.452 191.339 128.345 191.476 128.268 191.629C128.192 191.783 128.147 191.95 128.136 192.121C128.125 192.292 128.149 192.464 128.206 192.626Z" fill="#263238"/>
<path d="M127.365 188.421C127.575 188.54 128.343 187.507 129.723 187.132C131.103 186.757 132.328 187.132 132.465 186.922C132.602 186.712 132.273 186.575 131.734 186.374C131.008 186.149 130.23 186.149 129.504 186.374C128.78 186.582 128.14 187.014 127.676 187.607C127.319 188.019 127.264 188.366 127.365 188.421Z" fill="#263238"/>
<path d="M126.982 201.408C126.189 201.475 125.409 201.644 124.66 201.911C124.304 202.012 123.956 202.076 123.801 201.911C123.624 201.574 123.557 201.191 123.609 200.814C123.609 199.858 123.591 198.852 123.554 197.798C123.426 193.53 123.188 190.075 123.024 190.084C122.859 190.093 122.805 193.557 122.933 197.826C122.933 198.877 123.006 199.873 123.033 200.833C122.992 201.331 123.124 201.828 123.408 202.24C123.506 202.342 123.626 202.42 123.759 202.468C123.893 202.515 124.035 202.531 124.176 202.514C124.386 202.486 124.592 202.431 124.788 202.35C125.555 202.127 126.292 201.811 126.982 201.408Z" fill="#263238"/>
<path d="M124.806 182.736C125.09 183.047 126.351 182.324 127.996 181.822C129.641 181.319 131.085 181.273 131.159 180.908C131.159 180.716 130.82 180.46 130.171 180.323C129.313 180.172 128.431 180.219 127.594 180.46C126.756 180.7 125.984 181.129 125.336 181.712C124.852 182.178 124.678 182.59 124.806 182.736Z" fill="#263238"/>
<path d="M112.311 189.015C112.677 189.216 113.463 188.531 114.56 188.055C115.657 187.58 116.689 187.425 116.772 187.014C116.772 186.822 116.534 186.584 116.004 186.465C115.315 186.331 114.6 186.42 113.966 186.721C113.319 186.998 112.775 187.471 112.412 188.074C112.147 188.54 112.147 188.905 112.311 189.015Z" fill="#263238"/>
<path d="M143.763 188.284C143.891 188.165 149.009 184.071 151.258 190.112C153.506 196.154 147.007 197.15 146.934 196.976C146.861 196.803 143.763 188.284 143.763 188.284Z" fill="#FFBDA7"/>
<path d="M147.921 193.97C147.921 193.97 148.049 193.97 148.259 194.015C148.546 194.024 148.826 193.927 149.045 193.741C149.337 193.354 149.522 192.896 149.58 192.415C149.638 191.933 149.567 191.444 149.374 190.999C149.196 190.477 148.902 190.002 148.515 189.61C148.39 189.441 148.225 189.306 148.035 189.217C147.846 189.128 147.637 189.087 147.427 189.098C147.294 189.111 147.17 189.17 147.076 189.265C146.982 189.36 146.926 189.486 146.915 189.619C146.915 189.82 146.979 189.921 146.915 189.948C146.851 189.975 146.751 189.893 146.705 189.628C146.684 189.466 146.72 189.301 146.806 189.162C146.923 188.973 147.11 188.838 147.327 188.787C147.592 188.745 147.863 188.771 148.116 188.862C148.368 188.953 148.594 189.107 148.771 189.308C149.218 189.737 149.557 190.267 149.758 190.853C150.178 192.078 149.977 193.449 149.2 194.024C149.057 194.131 148.891 194.204 148.716 194.239C148.54 194.274 148.359 194.269 148.186 194.226C147.985 194.107 147.902 193.988 147.921 193.97Z" fill="#7A4A45"/>
<path d="M105.795 181.457C105.654 180.832 105.7 180.18 105.927 179.582C106.155 178.984 106.554 178.466 107.075 178.093C106.595 177.637 106.285 177.03 106.195 176.374C106.106 175.717 106.243 175.05 106.583 174.482C106.924 173.914 107.448 173.478 108.069 173.248C108.689 173.017 109.37 173.004 109.999 173.212C109.835 172.764 109.78 172.284 109.839 171.81C109.897 171.337 110.067 170.884 110.335 170.49C110.603 170.095 110.961 169.77 111.379 169.541C111.798 169.312 112.265 169.185 112.741 169.172C112.493 168.656 112.426 168.07 112.554 167.511C112.681 166.952 112.994 166.453 113.442 166.095C113.89 165.737 114.447 165.542 115.02 165.542C115.593 165.541 116.15 165.735 116.598 166.092C116.731 165.451 117.006 164.847 117.403 164.326C117.8 163.805 118.309 163.38 118.893 163.083C119.477 162.785 120.12 162.623 120.775 162.607C121.43 162.592 122.08 162.724 122.677 162.994C123.718 162.113 125.046 161.646 126.408 161.679C127.771 161.713 129.075 162.246 130.071 163.177C131.072 162.847 132.149 162.822 133.164 163.105C134.18 163.388 135.088 163.967 135.774 164.767C136.422 164.56 137.112 164.527 137.776 164.672C138.44 164.817 139.055 165.134 139.557 165.592C140.059 166.05 140.432 166.632 140.638 167.28C140.843 167.928 140.875 168.618 140.728 169.282C141.167 169.34 141.586 169.499 141.953 169.745C142.32 169.992 142.626 170.32 142.846 170.703C143.066 171.087 143.195 171.516 143.222 171.958C143.25 172.399 143.175 172.841 143.004 173.249C143.533 173.291 144.039 173.481 144.464 173.799C144.889 174.116 145.216 174.546 145.407 175.041C145.598 175.536 145.645 176.075 145.544 176.595C145.442 177.116 145.195 177.597 144.832 177.983C145.746 177.727 146.578 178.742 146.66 179.693C146.618 180.641 146.527 181.587 146.386 182.526C146.386 183.312 146.596 184.08 146.633 184.866C146.662 185.604 146.53 186.34 146.246 187.022C145.961 187.704 145.532 188.315 144.987 188.814L145.216 188.933C145.682 189.628 144.841 190.587 144 190.578C143.164 190.457 142.384 190.088 141.761 189.518C140.937 189.026 140.194 188.409 139.558 187.69C139.247 187.321 139.065 186.862 139.039 186.38C139.012 185.899 139.143 185.422 139.412 185.021C138.826 185.02 138.251 184.864 137.744 184.571C137.237 184.277 136.817 183.856 136.524 183.349C135.947 182.33 135.56 181.215 135.381 180.058L134.284 175.004C133.189 175.409 132.003 175.507 130.856 175.286C129.709 175.065 128.644 174.535 127.777 173.752C127.496 174.189 127.125 174.561 126.689 174.844C126.253 175.126 125.762 175.313 125.248 175.391C124.734 175.469 124.21 175.436 123.71 175.295C123.21 175.154 122.745 174.909 122.348 174.574C122.399 175.784 121.988 176.968 121.199 177.886C120.41 178.804 119.301 179.388 118.097 179.519C118.838 180.652 117.101 182.7 116.023 183.522C115.136 184.035 114.105 184.244 113.089 184.116C113.089 184.116 111.517 186.2 110.191 186.219C108.866 186.237 106.791 185.414 107.047 183.943C106.44 183.224 106.011 182.372 105.795 181.457Z" fill="#263238"/>
<path d="M143.315 173.104C143.3 173.458 143.206 173.805 143.04 174.118C142.942 174.277 142.809 174.411 142.65 174.509C142.491 174.607 142.312 174.667 142.126 174.685C141.899 174.712 141.668 174.677 141.459 174.583C141.25 174.49 141.07 174.342 140.938 174.155L140.719 173.826L140.545 174.182C140.394 174.455 140.173 174.684 139.905 174.844C139.637 175.005 139.331 175.092 139.019 175.096C138.666 175.08 138.327 174.957 138.046 174.743C137.765 174.529 137.556 174.234 137.447 173.899L137.346 173.533L137.081 173.798C136.922 173.955 136.733 174.078 136.526 174.161C136.319 174.244 136.098 174.285 135.875 174.283C135.515 174.281 135.165 174.162 134.878 173.944C134.385 173.57 134.275 173.177 134.22 173.195C134.165 173.213 134.22 173.652 134.705 174.109C135.019 174.406 135.425 174.586 135.856 174.621C136.136 174.64 136.416 174.601 136.679 174.509C136.943 174.416 137.186 174.271 137.392 174.082L137.017 173.981C137.129 174.399 137.366 174.771 137.698 175.049C138.029 175.327 138.438 175.495 138.868 175.532C139.299 175.569 139.73 175.473 140.104 175.256C140.478 175.039 140.775 174.712 140.956 174.319H140.563C140.746 174.568 140.993 174.761 141.279 174.878C141.565 174.994 141.877 175.028 142.181 174.977C142.413 174.934 142.631 174.838 142.82 174.697C143.009 174.556 143.162 174.374 143.269 174.164C143.616 173.533 143.342 173.067 143.315 173.104Z" fill="#455A64"/>
<path d="M146.55 178.422C146.504 178.422 146.413 178.678 146.02 178.934C145.762 179.112 145.456 179.207 145.143 179.207C144.829 179.207 144.523 179.112 144.265 178.934L144.064 178.769L143.973 179.016C143.859 179.291 143.676 179.532 143.443 179.716C143.209 179.9 142.932 180.021 142.638 180.067C142.298 180.104 141.955 180.036 141.655 179.873C141.354 179.71 141.111 179.459 140.956 179.153L140.774 178.769L140.536 179.117C140.475 179.206 140.401 179.286 140.317 179.354C140.127 179.511 139.893 179.605 139.647 179.623C139.402 179.641 139.156 179.582 138.946 179.455C138.759 179.327 138.611 179.15 138.518 178.944C138.424 178.738 138.389 178.51 138.416 178.285L138.479 177.828L138.086 178.066C137.635 178.334 137.098 178.416 136.588 178.294C136.181 178.203 135.815 177.982 135.546 177.664C135.318 177.362 135.128 177.033 134.979 176.686C134.957 176.891 134.979 177.099 135.042 177.295C135.105 177.492 135.208 177.673 135.344 177.828C135.623 178.22 136.025 178.507 136.487 178.642C136.79 178.733 137.107 178.762 137.421 178.727C137.736 178.693 138.039 178.595 138.315 178.44L138.013 178.23C137.967 178.539 138.009 178.854 138.133 179.14C138.258 179.426 138.46 179.671 138.717 179.848C139.008 180.038 139.351 180.131 139.698 180.113C140.044 180.095 140.376 179.967 140.646 179.747C140.766 179.645 140.874 179.529 140.966 179.4H140.545C140.717 179.773 140.997 180.085 141.348 180.298C141.699 180.51 142.106 180.613 142.516 180.592C142.926 180.571 143.32 180.429 143.648 180.182C143.976 179.935 144.223 179.596 144.357 179.208L144.064 179.29C144.241 179.419 144.443 179.511 144.656 179.56C144.87 179.608 145.091 179.613 145.307 179.574C145.644 179.536 145.962 179.4 146.221 179.181C146.55 178.751 146.578 178.422 146.55 178.422Z" fill="#455A64"/>
<path d="M113.473 168.678C113.602 168.43 113.776 168.207 113.985 168.02C114.127 167.902 114.292 167.814 114.47 167.762C114.648 167.711 114.835 167.697 115.019 167.721C115.202 167.745 115.379 167.806 115.538 167.902C115.696 167.998 115.834 168.125 115.941 168.276L116.16 168.578L116.215 168.203C116.28 167.811 116.443 167.442 116.689 167.131C116.935 166.819 117.256 166.575 117.622 166.421C118.069 166.248 118.56 166.221 119.023 166.344C119.486 166.468 119.898 166.734 120.2 167.106L120.474 167.444L120.584 167.024C120.705 166.616 120.916 166.241 121.201 165.925C121.485 165.609 121.836 165.36 122.229 165.196C122.653 165.028 123.113 164.968 123.566 165.022C124.02 165.076 124.452 165.243 124.825 165.507C125.134 165.722 125.395 165.999 125.592 166.32L125.73 166.54L125.94 166.384C126.44 166.028 127.044 165.85 127.658 165.878C128.271 165.906 128.857 166.139 129.322 166.54C129.711 166.912 129.986 167.387 130.114 167.91C130.242 168.433 130.217 168.982 130.044 169.492L129.916 169.83L130.263 169.748C131.036 169.584 131.843 169.728 132.511 170.15C133.025 170.478 133.424 170.957 133.654 171.521C133.839 172.021 133.935 172.55 133.937 173.084C133.937 173.084 134.01 172.947 134.029 172.663C134.065 172.248 134.009 171.83 133.864 171.439C133.649 170.81 133.235 170.268 132.685 169.894C132.323 169.645 131.916 169.47 131.486 169.379C131.056 169.288 130.613 169.283 130.181 169.364L130.409 169.629C130.668 168.998 130.712 168.3 130.535 167.642C130.358 166.983 129.97 166.401 129.429 165.986C128.889 165.57 128.227 165.344 127.545 165.341C126.863 165.339 126.2 165.561 125.656 165.973L126.004 166.037C125.767 165.671 125.455 165.36 125.09 165.123C124.652 164.811 124.143 164.615 123.609 164.553C123.075 164.49 122.535 164.564 122.037 164.766C121.58 164.96 121.172 165.255 120.844 165.629C120.517 166.002 120.278 166.445 120.145 166.924L120.538 166.841C120.215 166.439 119.78 166.142 119.288 165.987C118.796 165.832 118.269 165.826 117.773 165.969C117.278 166.113 116.836 166.4 116.504 166.794C116.171 167.188 115.962 167.672 115.904 168.185L116.178 168.112C116.022 167.914 115.821 167.754 115.593 167.647C115.365 167.539 115.115 167.485 114.862 167.49C114.49 167.504 114.136 167.654 113.866 167.911C113.701 168.064 113.575 168.255 113.5 168.468C113.464 168.596 113.464 168.678 113.473 168.678Z" fill="#455A64"/>
<path d="M130.948 199.956C130.729 200.029 131.323 201.483 130.509 203.018C129.696 204.554 128.087 205.029 128.151 205.239C128.215 205.449 128.617 205.376 129.275 205.129C130.128 204.791 130.833 204.164 131.268 203.356C131.688 202.581 131.79 201.673 131.551 200.825C131.359 200.166 131.049 199.901 130.948 199.956Z" fill="#263238"/>
<path d="M122.046 226.279L114.807 246.671L116.479 268.972L121.049 307.497C121.049 307.497 138.022 301.767 138.79 302.343C139.558 302.918 131.277 263.287 131.277 263.287L137.264 231.041L136.88 221.545L122.046 226.279Z" fill="#0C75FF"/>
<path d="M122.046 226.279L114.085 244.559L97.6331 251.012L80.4316 256.341L82.8446 268.716C82.9639 269.317 83.2052 269.887 83.5536 270.391C83.9019 270.895 84.35 271.322 84.87 271.646C85.39 271.97 85.9709 272.183 86.5768 272.274C87.1827 272.364 87.8007 272.329 88.3926 272.171L102.953 268.259L116.516 267.638L123.572 251.241L122.046 226.279Z" fill="#0C75FF"/>
<path d="M86.0522 251.249L87.2586 249.75C88.4458 249.74 89.6203 249.996 90.6953 250.5C92.2707 251.795 93.4256 253.528 94.0131 255.481C94.1453 256.886 94.1453 258.299 94.0131 259.704L85.7871 251.249" fill="#FFBDA7"/>
<path d="M70.0117 242.366C70.0117 242.613 85.5497 259.074 85.5497 259.074L88.4745 261.962H97.7973L79.7001 241.854L71.8946 240.52L70.0117 242.366Z" fill="#263238"/>
<path d="M133.032 278.935C132.894 278.756 132.774 278.563 132.676 278.36L131.762 276.66C130.976 275.179 129.861 273.004 128.563 270.262C127.019 267.093 125.646 263.843 124.45 260.527C124.108 259.561 123.824 258.575 123.6 257.575C123.484 257.051 123.401 256.52 123.353 255.985C123.353 255.455 123.353 254.915 123.353 254.376C123.353 252.21 123.353 249.971 123.463 247.677C123.572 244.77 123.719 241.964 123.892 239.295V239.158L124.02 239.103L128.837 236.983L128.892 237.403L125.236 236.919H124.925L125.08 236.654C127.457 232.577 129.431 229.168 130.848 226.728L132.484 223.986L132.932 223.273C132.977 223.185 133.036 223.105 133.105 223.035C133.077 223.128 133.037 223.217 132.987 223.3L132.594 224.05L131.049 226.865L125.437 236.873L125.282 236.571L128.938 237.028L129.714 237.12L129.002 237.44L124.203 239.579L124.34 239.377C124.176 242.046 124.029 244.861 123.92 247.75C123.837 250.035 123.783 252.265 123.801 254.422C123.801 254.961 123.801 255.491 123.801 256.021C123.841 256.532 123.917 257.039 124.029 257.539C124.245 258.522 124.517 259.492 124.843 260.445C126.132 264.183 127.585 267.446 128.855 270.179C130.126 272.912 131.168 275.087 131.908 276.577L132.749 278.314C132.859 278.514 132.953 278.722 133.032 278.935Z" fill="#263238"/>
<path d="M79.1787 251.25C79.1787 251.25 76.8206 252.95 76.8846 253.919C76.8852 254.345 76.9895 254.766 77.1886 255.143C77.3876 255.52 77.6754 255.844 78.0271 256.085C78.5755 256.268 80.2024 257.109 80.2024 257.109C80.2024 257.109 78.7491 258.498 79.1787 259.951C79.258 260.34 79.4231 260.705 79.6619 261.021C79.9007 261.338 80.2072 261.597 80.5589 261.779C80.5923 262.79 80.7963 263.788 81.1621 264.732C81.7173 265.485 82.5368 266.001 83.4562 266.176C83.9689 267.216 84.5811 268.205 85.2842 269.128C85.9904 269.783 86.8686 270.224 87.816 270.398C87.816 270.398 89.9913 270.645 91.1338 269.859C91.9097 269.469 92.5563 268.863 92.9958 268.113C93.4352 267.364 93.6488 266.504 93.6108 265.636C93.6108 265.636 98.8023 263.041 98.8571 261.715C98.912 260.39 98.3179 259.97 98.3179 259.97L95.7221 260.445C95.7221 260.445 95.3565 259.065 94.5796 258.937C93.8027 258.809 84.3245 261.112 84.3245 261.112C84.3245 261.112 90.7774 260.088 90.9602 258.818C91.143 257.547 91.1978 256.469 90.229 256.222C89.2601 255.975 82.396 256.725 82.396 256.725L82.0304 255.5C82.0304 255.5 83.8584 255.564 83.8584 253.937C83.8584 252.31 82.8347 251.945 82.8347 251.945L79.1787 251.25Z" fill="#FFBDA7"/>
<path d="M133.032 223.015L133.818 229.313L128.947 256.705L133.892 280.35L159.52 287.928L169.601 283.577L166.156 217.202L156.997 210.768L153.479 208.4L140.28 228.38L133.032 223.015Z" fill="#FAFAFA"/>
<path d="M156.293 210.266L162.691 213.117L185.377 216.17L197.615 280.534L199.151 287.928L222.613 323.035C222.867 323.416 223.041 323.845 223.122 324.296C223.203 324.747 223.191 325.21 223.085 325.656C222.98 326.102 222.784 326.521 222.509 326.888C222.234 327.255 221.887 327.561 221.489 327.788L202.295 338.756C201.582 339.121 200.759 339.211 199.983 339.009C199.208 338.807 198.534 338.326 198.09 337.659L173.659 300.87L161.558 285.378C161.558 285.378 154.31 263.442 153.332 254.11C152.57 245.929 152.57 237.695 153.332 229.514C153.898 223.93 156.293 210.266 156.293 210.266Z" fill="#0C75FF"/>
<path d="M185.34 216.17C186.817 216.946 188.099 218.045 189.092 219.385C190.084 220.726 190.761 222.273 191.071 223.912C192.515 231.553 196.866 244.879 198.502 259.11C200.787 279.017 195.431 285.159 192.908 288.596C190.385 292.032 174.738 299.326 174.738 299.326L162.975 283.66L175.999 272.985L174.857 245.336C174.857 245.336 170.287 239.048 172.572 229.707C174.857 220.366 181.529 215.604 185.368 216.17H185.34Z" fill="#0C75FF"/>
<g opacity="0.3">
<path d="M197.478 280.014C195.696 284.84 193.658 288.916 189.508 291.21C185.084 293.66 178.933 297.115 174.738 299.326L177.809 304.098C182.626 303.357 191.519 297.745 194.407 293.824C197.203 289.802 198.306 284.842 197.478 280.014Z" fill="black"/>
</g>
<path d="M174.573 246.779C174.612 246.914 174.64 247.051 174.655 247.19C174.71 247.492 174.774 247.894 174.865 248.406C175.03 249.512 175.277 251.084 175.588 253.104C176.209 257.217 177.096 263.158 178.183 270.47V270.561L178.11 270.625L163.13 283.824V283.54L174.902 299.197L174.61 299.133C178.521 297.159 182.57 295.02 186.574 292.653C187.716 291.967 188.841 291.282 189.928 290.541C191.009 289.846 192.022 289.05 192.954 288.165C194.54 286.197 195.797 283.983 196.674 281.612C198.288 277.081 199.035 272.288 198.876 267.481C198.767 263.122 198.349 258.775 197.624 254.475C196.993 250.426 196.262 246.679 195.54 243.269C194.105 236.442 192.716 230.967 191.747 227.192C191.253 225.364 190.833 223.865 190.605 222.851C190.477 222.366 190.376 221.991 190.312 221.717C190.266 221.59 190.236 221.458 190.221 221.324C190.221 221.324 190.276 221.452 190.358 221.699C190.44 221.946 190.55 222.348 190.696 222.823C190.988 223.801 191.409 225.264 191.93 227.146C192.954 230.912 194.389 236.378 195.869 243.196C196.619 246.605 197.368 250.362 198.017 254.42C198.76 258.734 199.191 263.096 199.306 267.472C199.482 272.339 198.738 277.195 197.112 281.785C196.214 284.211 194.927 286.473 193.301 288.485C192.348 289.402 191.307 290.223 190.193 290.934C189.096 291.675 187.963 292.369 186.821 293.055C182.79 295.44 178.75 297.579 174.82 299.544L174.646 299.636L174.527 299.48L162.782 283.796L162.664 283.632L162.81 283.504L177.845 270.36L177.79 270.516C176.757 263.204 175.962 257.281 175.35 253.15C175.076 251.13 174.856 249.494 174.71 248.443C174.646 247.922 174.591 247.529 174.555 247.218C174.552 247.071 174.558 246.925 174.573 246.779Z" fill="#263238"/>
<path d="M157.966 270.426C157.959 270.211 157.978 269.996 158.02 269.786C158.075 269.329 158.157 268.726 158.249 267.958C158.487 266.331 158.806 264.073 159.209 261.313C160.004 255.701 161.256 247.969 162.472 239.377C163.038 235.228 163.577 231.279 164.062 227.678L164.208 227.906L160.333 226.426L159.949 226.28L160.287 226.06L164.181 223.538L164.108 223.711C163.641 220.485 163.267 217.843 162.993 215.942C162.883 215.028 162.782 214.361 162.718 213.822C162.67 213.575 162.649 213.324 162.654 213.072C162.73 213.311 162.785 213.555 162.819 213.803C162.91 214.343 163.038 215.037 163.194 215.915C163.504 217.807 163.934 220.439 164.455 223.656V223.775L164.364 223.839L160.497 226.398L160.452 226.042L164.345 227.495L164.51 227.559V227.733C164.034 231.334 163.504 235.292 162.947 239.441C161.74 248.005 160.433 255.738 159.547 261.377C159.09 264.119 158.715 266.386 158.441 268.004L158.121 269.832C158.088 270.034 158.036 270.233 157.966 270.426Z" fill="#263238"/>
<path d="M181.885 217.039C181.94 217.112 180.779 217.953 179.216 219.534C178.309 220.487 177.483 221.514 176.748 222.605C174.929 225.282 173.684 228.307 173.092 231.489C172.854 232.783 172.725 234.095 172.708 235.41C172.708 237.668 172.955 239.066 172.864 239.066C172.741 238.756 172.661 238.43 172.626 238.098C172.548 237.72 172.493 237.339 172.462 236.955C172.405 236.442 172.374 235.927 172.37 235.41C172.335 234.07 172.43 232.729 172.654 231.407C172.948 229.791 173.401 228.209 174.006 226.682C174.643 225.166 175.43 223.718 176.355 222.359C177.121 221.257 177.99 220.232 178.951 219.297C179.314 218.936 179.696 218.595 180.094 218.273C180.385 218.018 180.69 217.78 181.008 217.56C181.276 217.348 181.571 217.173 181.885 217.039Z" fill="#263238"/>
<path d="M116.379 267.657C116.251 267.657 115.831 263.233 115.465 257.749C115.099 252.265 114.871 247.823 115.008 247.805C115.145 247.786 115.556 252.238 115.922 257.712C116.288 263.187 116.507 267.648 116.379 267.657Z" fill="#263238"/>
<path d="M193.649 308.01L197.168 315.195L213.464 304.766L207.825 298.377L193.649 308.01Z" fill="#0C75FF"/>
<path d="M193.649 308.018C193.957 307.749 194.284 307.501 194.627 307.277L197.497 305.258L207.697 298.201L207.862 298.092L207.99 298.238L213.647 304.636L213.83 304.846L213.592 304.992L212.879 305.449L197.259 315.33L197.095 315.43L197.022 315.257L194.499 309.919C194.234 309.334 194.015 308.859 193.85 308.484C193.769 308.329 193.701 308.167 193.649 308C193.763 308.157 193.861 308.325 193.941 308.502C194.133 308.877 194.38 309.352 194.691 309.928L197.323 315.11L197.076 315.046L212.614 304.992L213.327 304.535V304.892C211.335 302.634 209.434 300.477 207.697 298.494H207.99L197.78 305.303L194.801 307.25L193.987 307.771L193.649 308.018Z" fill="#263238"/>
<g opacity="0.3">
<path d="M193.768 308.328C193.841 308.465 197.424 319.36 197.424 319.36L212.624 308.575L211.317 306.189L197.168 315.238L193.768 308.328Z" fill="black"/>
</g>
<g opacity="0.3">
<path d="M163.112 216.125L165.854 225.036L163.112 226.28L166.722 228.053C166.722 228.053 161.037 259.129 160.324 261.962C159.611 264.795 158.734 265.709 158.734 265.709L164.282 227.751L160.407 226.28L164.282 223.729L163.112 216.125Z" fill="black"/>
</g>
<path d="M102.98 264.686C102.908 262.548 102.561 260.428 101.947 258.379C101.183 256.386 100.17 254.497 98.9312 252.758C99.4516 253.132 99.8979 253.6 100.247 254.138C102.108 256.641 103.134 259.666 103.181 262.784C103.229 263.425 103.161 264.069 102.98 264.686Z" fill="#263238"/>
<g opacity="0.3">
<path d="M114.871 246.926C112.129 253.689 113.143 261.102 116.315 267.655C115.821 260.115 115.529 254.238 114.871 246.926Z" fill="black"/>
</g>
<path d="M154.31 215.896C154.187 216.218 154.027 216.525 153.835 216.81L152.418 219.178C151.23 221.189 149.676 223.985 148.095 227.175C147.035 229.323 146.13 231.38 145.353 233.116L145.252 233.372L145.042 233.208C143.834 232.243 142.698 231.193 141.642 230.063C141.219 229.658 140.844 229.204 140.527 228.711C140.984 229.076 141.415 229.473 141.816 229.899C142.922 230.951 144.081 231.945 145.289 232.879L144.978 232.961C145.682 231.197 146.568 229.131 147.629 226.965C148.968 224.231 150.457 221.574 152.089 219.004C152.72 218.017 153.259 217.24 153.643 216.71C153.831 216.413 154.055 216.139 154.31 215.896Z" fill="#263238"/>
<path d="M139.302 228.5C138.943 230.096 138.431 231.654 137.776 233.152L137.657 233.472L137.401 233.253L137.282 233.143C135.953 232.085 134.81 230.813 133.9 229.377C134.001 229.286 135.509 230.968 137.556 232.787L137.675 232.887L137.3 232.988C137.823 231.431 138.493 229.928 139.302 228.5Z" fill="#263238"/>
<path d="M141.989 275.27C141.938 275.13 141.914 274.981 141.916 274.832C141.916 274.475 141.843 274.055 141.797 273.543C141.724 272.345 141.615 270.746 141.487 268.799C141.24 264.796 140.956 259.266 140.71 253.151C140.463 247.037 140.335 241.498 140.335 237.485C140.335 235.475 140.335 233.83 140.399 232.733C140.399 232.221 140.399 231.819 140.463 231.444C140.463 231.293 140.481 231.143 140.518 230.996C140.543 231.144 140.543 231.296 140.518 231.444C140.518 231.791 140.518 232.221 140.518 232.733C140.518 233.93 140.573 235.53 140.609 237.476C140.691 241.489 140.883 247.019 141.121 253.133C141.359 259.248 141.587 264.714 141.752 268.781C141.825 270.737 141.88 272.336 141.925 273.534C141.925 274.045 141.925 274.448 141.925 274.822C141.961 274.969 141.982 275.119 141.989 275.27Z" fill="#263238"/>
<path d="M88.4745 398.704L90.8418 421.015C90.8418 421.015 68.9058 430.923 68.988 435.081L112.421 432.056L110.164 397.123L88.4745 398.704Z" fill="#0C75FF"/>
<path d="M104.141 418.201C104.563 418.308 104.932 418.562 105.184 418.917C105.435 419.273 105.551 419.706 105.512 420.139C105.429 420.569 105.185 420.95 104.83 421.205C104.475 421.46 104.035 421.569 103.602 421.51C103.145 421.415 102.743 421.149 102.476 420.767C102.209 420.384 102.098 419.915 102.167 419.454C102.296 419.014 102.592 418.642 102.992 418.417C103.391 418.192 103.862 418.131 104.305 418.247" fill="#E0E0E0"/>
<path d="M112.522 432.962L112.302 429.58L70.5507 432.761C70.5507 432.761 68.6679 433.739 68.9878 435.082L112.522 432.962Z" fill="#E0E0E0"/>
<path d="M90.1194 420.851C90.1194 421.061 91.2071 421.079 92.3039 421.692C93.4007 422.304 94.0131 423.154 94.1959 423.053C94.3787 422.953 93.9856 421.756 92.6512 421.043C91.3168 420.33 90.0646 420.659 90.1194 420.851Z" fill="#263238"/>
<path d="M85.6959 423.054C85.6959 423.255 86.6098 423.556 87.3867 424.406C88.1636 425.256 88.447 426.179 88.6572 426.161C88.8674 426.143 88.9223 424.927 87.926 423.894C86.9297 422.862 85.6867 422.843 85.6959 423.054Z" fill="#263238"/>
<path d="M83.4932 428.666C83.6851 428.666 83.9045 427.615 83.2829 426.491C82.6614 425.366 81.6286 424.973 81.5555 425.156C81.4824 425.339 82.1313 425.924 82.634 426.847C83.1367 427.77 83.2738 428.666 83.4932 428.666Z" fill="#263238"/>
<path d="M90.1472 415.706C90.2478 415.889 91.1983 415.533 92.4048 415.524C93.6113 415.514 94.571 415.834 94.6715 415.652C94.7721 415.469 93.8124 414.738 92.3957 414.783C90.979 414.829 90.0284 415.542 90.1472 415.706Z" fill="#263238"/>
<path d="M80.7422 308.649L60.6342 318.593C60.6342 318.593 43.7618 301.483 39.8682 302.964L57.746 342.659L89.736 328.446L80.7422 308.649Z" fill="#0C75FF"/>
<path d="M67.873 330.092C67.9303 330.526 67.8247 330.966 67.5766 331.328C67.3285 331.689 66.9555 331.945 66.5294 332.048C66.0979 332.121 65.6546 332.025 65.292 331.78C64.9293 331.535 64.6752 331.159 64.5826 330.731C64.5145 330.27 64.6251 329.801 64.8919 329.418C65.1586 329.036 65.5613 328.77 66.0176 328.675C66.4672 328.659 66.9062 328.814 67.2456 329.109C67.585 329.405 67.7995 329.818 67.8456 330.265" fill="#E0E0E0"/>
<path d="M56.9233 343.07L60.0218 341.69L42.5735 303.622C42.5735 303.622 41.0106 302.205 39.8315 302.964L56.9233 343.07Z" fill="#E0E0E0"/>
<path d="M60.5335 317.862C60.3415 317.953 60.6888 318.959 60.5335 320.193C60.3781 321.427 59.7566 322.304 59.9119 322.45C60.0673 322.596 61.0636 321.801 61.2647 320.302C61.4657 318.803 60.698 317.734 60.5335 317.862Z" fill="#263238"/>
<path d="M56.9325 314.471C56.7314 314.471 56.7771 315.503 56.2561 316.527C55.7352 317.551 54.9491 318.136 55.0405 318.355C55.1319 318.574 56.2927 318.172 56.9142 316.884C57.5357 315.595 57.1244 314.416 56.9325 314.471Z" fill="#263238"/>
<path d="M50.8911 314.352C50.8911 314.543 52.0153 314.352 52.8562 313.438C53.6971 312.524 53.7062 311.363 53.5051 311.354C53.304 311.344 52.9933 312.167 52.2895 312.953C51.5857 313.739 50.818 314.15 50.8911 314.352Z" fill="#263238"/>
<path d="M65.3689 316.097C65.2318 316.262 65.899 317.011 66.2829 318.163C66.6667 319.315 66.7399 320.302 66.9501 320.32C67.1603 320.338 67.4893 319.214 66.9501 317.898C66.4108 316.582 65.4785 315.933 65.3689 316.097Z" fill="#263238"/>
<path d="M90.5579 321.299C88.3833 321.841 86.4104 322.997 84.8742 324.629C83.338 326.261 82.3033 328.3 81.8932 330.503C80.4217 338.245 85.7503 416.108 85.7503 416.108L113.079 413.915L111.406 361.451L110.73 350.867L113.079 349.039L161.11 340.584L153.798 320.732L145.764 306.748L108.975 315.888L90.5579 321.299Z" fill="#263238"/>
<path d="M180.971 308.182C180.971 308.182 161.101 279.455 155.288 275.278C150.498 271.832 143.296 271.841 138.836 273.843C134.375 275.845 64.8018 310.357 64.8018 310.357L75.0111 335.949L141.24 312.999L151.111 328.537L160.306 340.711L186.117 340.912C187.333 340.912 192.881 329.944 192.881 329.944L180.971 308.182Z" fill="#263238"/>
<path d="M81.6377 336.508C81.624 336.42 81.624 336.33 81.6377 336.242C81.6377 336.032 81.6377 335.776 81.6377 335.456C81.6377 335.137 81.6377 334.67 81.6377 334.168C81.6377 333.665 81.7565 333.08 81.8297 332.422C81.9028 331.764 82.113 331.06 82.2592 330.265C82.3415 329.872 82.506 329.479 82.634 329.068C82.7667 328.632 82.9316 328.208 83.1275 327.797C83.9736 325.816 85.322 324.089 87.0395 322.788C88.04 322.027 89.1794 321.468 90.3938 321.143L94.3515 320.467L103.062 319.014L123.033 315.705L141.167 312.734H141.313L141.395 312.862C146.705 321.152 151.019 328.4 154.648 333.08C156.403 335.447 157.81 337.33 158.798 338.646C159.264 339.277 159.629 339.77 159.904 340.127L160.178 340.511L160.269 340.648C160.269 340.648 160.269 340.648 160.15 340.538L159.84 340.173L158.679 338.738C157.673 337.476 156.211 335.621 154.429 333.254C150.727 328.574 146.349 321.372 141.02 313.146L141.24 313.246L123.106 316.244L103.135 319.516L94.4154 320.933L90.4761 321.573C89.3057 321.88 88.2046 322.407 87.2314 323.127C85.5505 324.386 84.2222 326.058 83.3743 327.98C83.1717 328.379 83.0035 328.795 82.8716 329.223C82.7188 329.608 82.5876 330.002 82.4786 330.402C82.2871 331.1 82.1345 331.808 82.0216 332.522L81.7748 334.25C81.7748 334.744 81.72 335.164 81.7017 335.53C81.6834 335.895 81.7017 336.114 81.6469 336.316C81.6488 336.38 81.6457 336.444 81.6377 336.508Z" fill="#455A64"/>
<path d="M150.718 295.223C150.787 295.491 150.821 295.768 150.819 296.045C150.88 296.797 150.88 297.552 150.819 298.303C150.716 299.422 150.511 300.529 150.207 301.612C149.821 302.932 149.313 304.214 148.689 305.441C148.034 306.651 147.269 307.798 146.404 308.869C145.682 309.731 144.887 310.529 144.028 311.254C143.456 311.743 142.844 312.183 142.2 312.57C141.973 312.733 141.724 312.863 141.46 312.954C141.414 312.881 142.374 312.26 143.809 310.998C144.62 310.257 145.371 309.453 146.057 308.594C146.89 307.536 147.63 306.408 148.269 305.222C148.88 304.021 149.387 302.77 149.786 301.484C150.105 300.432 150.337 299.356 150.481 298.266C150.691 296.411 150.627 295.223 150.718 295.223Z" fill="#455A64"/>
<path d="M381.046 386.33L261.45 386.266C254.542 386.261 247.918 383.514 243.035 378.627C238.153 373.741 235.41 367.116 235.41 360.208L235.474 60.3244C235.474 56.9021 236.148 53.5133 237.458 50.3517C238.768 47.1901 240.689 44.3176 243.11 41.8985C245.53 39.4794 248.404 37.561 251.567 36.253C254.729 34.945 258.119 34.273 261.541 34.2754L381.138 34.3851C388.046 34.3899 394.669 37.1375 399.552 42.0238C404.435 46.9101 407.178 53.5353 407.178 60.4432L407.123 360.29C407.12 363.712 406.444 367.1 405.132 370.261C403.821 373.421 401.899 376.293 399.478 378.711C397.056 381.129 394.182 383.046 391.02 384.353C387.857 385.661 384.468 386.332 381.046 386.33Z" fill="#263238"/>
<path d="M381.01 44.9884H357.822C356.295 45.0244 354.845 45.6642 353.79 46.7677C352.735 47.8711 352.16 49.348 352.192 50.8746V55.079C352.209 55.8352 352.076 56.5874 351.803 57.2925C351.529 57.9976 351.119 58.6419 350.596 59.1885C350.073 59.7352 349.448 60.1734 348.755 60.4782C348.063 60.7831 347.318 60.9485 346.561 60.9652H301.364C300.608 60.9485 299.862 60.7831 299.17 60.4782C298.478 60.1734 297.852 59.7352 297.329 59.1885C296.807 58.6419 296.397 57.9976 296.123 57.2925C295.849 56.5874 295.717 55.8352 295.734 55.079V50.8198C295.766 49.2932 295.191 47.8162 294.135 46.7128C293.08 45.6094 291.63 44.9696 290.104 44.9336H281.942H261.651C256.803 44.9336 252.153 46.8595 248.725 50.2877C245.297 53.7158 243.371 58.3654 243.371 63.2136L243.316 355.886C243.316 360.726 245.236 365.368 248.654 368.795C252.072 372.222 256.71 374.153 261.55 374.166L380.919 374.23C385.767 374.23 390.416 372.304 393.845 368.875C397.273 365.447 399.199 360.798 399.199 355.95L399.263 63.2776C399.265 58.4326 397.344 53.7848 393.921 50.3554C390.499 46.9261 385.855 44.9957 381.01 44.9884Z" fill="white"/>
<path d="M399.253 63.241C399.253 58.3929 397.327 53.7433 393.899 50.3151C390.471 46.8869 385.822 44.961 380.973 44.961H357.785C356.259 44.997 354.809 45.6368 353.753 46.7402C352.698 47.8437 352.123 49.3206 352.155 50.8472V55.0516C352.172 55.8078 352.04 56.56 351.766 57.2651C351.492 57.9702 351.082 58.6145 350.559 59.1611C350.036 59.7077 349.411 60.146 348.719 60.4508C348.026 60.7557 347.281 60.9211 346.525 60.9377H301.327C300.571 60.9211 299.826 60.7557 299.133 60.4508C298.441 60.146 297.816 59.7077 297.293 59.1611C296.77 58.6145 296.36 57.9702 296.086 57.2651C295.812 56.56 295.68 55.8078 295.697 55.0516V50.8198C295.729 49.2932 295.154 47.8162 294.099 46.7128C293.043 45.6094 291.593 44.9696 290.067 44.9336H281.905H261.614C256.766 44.9336 252.116 46.8595 248.688 50.2877C245.26 53.7158 243.334 58.3654 243.334 63.2136L243.279 91.2003H399.244L399.253 63.241Z" fill="#F5F5F5"/>
<path d="M386.566 73.5238C386.566 73.606 383.769 73.7066 380.324 73.734C378.242 73.8056 376.159 73.769 374.081 73.6243C378.238 73.3776 382.406 73.344 386.566 73.5238Z" fill="#263238"/>
<path d="M386.622 76.712C384.549 76.8909 382.468 76.9611 380.388 76.9222C378.307 76.9938 376.223 76.9572 374.146 76.8126C374.146 76.7303 376.933 76.6389 380.388 76.6023C383.843 76.5658 386.622 76.6297 386.622 76.712Z" fill="#263238"/>
<path d="M386.622 79.9105C386.622 79.9928 383.834 80.0842 380.388 80.1116C378.307 80.1832 376.223 80.1497 374.146 80.0111C378.3 79.7643 382.464 79.7307 386.622 79.9105Z" fill="#263238"/>
<path d="M277.956 294.527L278.587 293.202C279.697 294.102 281.087 294.587 282.517 294.573C284.564 294.573 285.451 293.778 285.451 292.745C285.451 289.847 278.249 291.675 278.249 287.261C278.249 285.433 279.674 283.861 282.819 283.861C284.168 283.835 285.496 284.203 286.639 284.921L286.082 286.264C285.106 285.642 283.975 285.307 282.819 285.296C280.799 285.296 279.93 286.146 279.93 287.188C279.93 290.094 287.133 288.275 287.133 292.672C287.133 294.5 285.67 296.053 282.563 296.053C280.896 296.101 279.265 295.56 277.956 294.527Z" fill="#263238"/>
<path d="M288.522 291.384C288.512 290.765 288.63 290.15 288.868 289.578C289.107 289.007 289.46 288.49 289.907 288.062C290.354 287.633 290.884 287.301 291.465 287.086C292.046 286.871 292.665 286.779 293.284 286.814C294.01 286.771 294.734 286.928 295.378 287.266C296.022 287.604 296.562 288.111 296.94 288.733L295.706 289.529C295.442 289.122 295.078 288.79 294.649 288.565C294.22 288.339 293.741 288.227 293.256 288.24C292.446 288.283 291.683 288.636 291.124 289.225C290.566 289.814 290.255 290.595 290.255 291.407C290.255 292.219 290.566 292.999 291.124 293.588C291.683 294.178 292.446 294.53 293.256 294.574C293.741 294.589 294.222 294.478 294.651 294.252C295.08 294.027 295.444 293.693 295.706 293.285L296.94 294.071C296.561 294.693 296.021 295.2 295.378 295.54C294.734 295.879 294.01 296.038 293.284 296C292.662 296.034 292.04 295.939 291.456 295.721C290.872 295.503 290.34 295.167 289.893 294.733C289.446 294.3 289.093 293.779 288.857 293.202C288.621 292.626 288.507 292.007 288.522 291.384Z" fill="#263238"/>
<path d="M306.19 290.451V295.881H304.645V294.692C304.302 295.139 303.851 295.491 303.335 295.717C302.819 295.942 302.254 296.033 301.693 295.981C299.655 295.981 298.357 294.893 298.357 293.331C298.357 291.768 299.271 290.698 302.013 290.698H304.6V290.378C304.6 289.007 303.795 288.203 302.187 288.203C301.154 288.194 300.149 288.536 299.335 289.172L298.649 287.947C299.728 287.162 301.036 286.757 302.369 286.795C304.801 286.795 306.19 287.984 306.19 290.451ZM304.563 293.129V291.877H302.05C300.432 291.877 299.975 292.499 299.975 293.267C299.975 294.034 300.724 294.729 301.958 294.729C302.505 294.769 303.051 294.637 303.519 294.35C303.986 294.063 304.352 293.636 304.563 293.129Z" fill="#263238"/>
<path d="M317.761 290.698V295.881H316.125V290.89C316.125 289.126 315.211 288.258 313.703 288.258C313.309 288.228 312.912 288.286 312.543 288.428C312.174 288.569 311.84 288.791 311.567 289.077C311.293 289.362 311.086 289.705 310.961 290.081C310.836 290.456 310.795 290.854 310.842 291.247V295.881H309.215V286.878H310.76V288.24C311.146 287.757 311.642 287.374 312.207 287.123C312.771 286.872 313.388 286.76 314.005 286.796C316.244 286.796 317.761 288.057 317.761 290.698Z" fill="#263238"/>
<path d="M329.324 290.697V295.879H327.697V290.889C327.697 289.125 326.783 288.257 325.266 288.257C324.872 288.227 324.476 288.284 324.107 288.426C323.738 288.568 323.405 288.789 323.132 289.075C322.859 289.361 322.653 289.704 322.529 290.08C322.405 290.455 322.365 290.853 322.414 291.245V295.879H320.814V286.877H322.377V288.238C322.762 287.755 323.258 287.371 323.823 287.12C324.388 286.868 325.005 286.757 325.622 286.794C327.779 286.794 329.324 288.056 329.324 290.697Z" fill="#263238"/>
<path d="M332.065 284.091C332.056 283.87 332.114 283.652 332.23 283.464C332.346 283.276 332.516 283.127 332.718 283.036C332.919 282.946 333.143 282.918 333.361 282.956C333.579 282.994 333.78 283.097 333.939 283.25C334.098 283.404 334.207 283.602 334.253 283.818C334.298 284.034 334.278 284.259 334.194 284.464C334.111 284.668 333.968 284.843 333.784 284.966C333.6 285.088 333.383 285.153 333.162 285.151C333.02 285.155 332.879 285.13 332.747 285.079C332.614 285.027 332.494 284.95 332.391 284.851C332.289 284.752 332.208 284.634 332.152 284.504C332.096 284.373 332.067 284.233 332.065 284.091ZM332.349 286.879H333.985V295.882H332.349V286.879Z" fill="#263238"/>
<path d="M345.638 290.698V295.881H344.002V290.89C344.002 289.126 343.088 288.258 341.57 288.258C341.176 288.228 340.78 288.286 340.411 288.427C340.042 288.569 339.709 288.791 339.436 289.077C339.164 289.363 338.958 289.706 338.834 290.081C338.709 290.456 338.67 290.855 338.719 291.247V295.881H337.092V286.878H338.655V288.24C339.041 287.757 339.537 287.374 340.101 287.123C340.666 286.872 341.283 286.76 341.899 286.796C344.084 286.796 345.638 288.057 345.638 290.698Z" fill="#263238"/>
<path d="M357.319 286.878V294.665C357.319 297.837 355.71 299.281 352.648 299.281C351.104 299.346 349.585 298.871 348.352 297.937L349.129 296.685C350.116 297.46 351.339 297.873 352.593 297.855C354.723 297.855 355.692 296.868 355.692 294.83V294.117C355.287 294.574 354.786 294.935 354.225 295.175C353.664 295.416 353.057 295.528 352.447 295.506C351.858 295.533 351.27 295.44 350.718 295.234C350.166 295.027 349.662 294.71 349.236 294.303C348.81 293.896 348.471 293.407 348.239 292.865C348.007 292.323 347.888 291.74 347.888 291.151C347.888 290.561 348.007 289.978 348.239 289.436C348.471 288.895 348.81 288.405 349.236 287.998C349.662 287.591 350.166 287.275 350.718 287.068C351.27 286.861 351.858 286.769 352.447 286.796C353.078 286.77 353.706 286.891 354.283 287.148C354.86 287.404 355.37 287.791 355.774 288.276V286.878H357.319ZM355.719 291.146C355.754 290.525 355.601 289.907 355.281 289.373C354.96 288.839 354.487 288.414 353.922 288.153C353.357 287.891 352.726 287.805 352.112 287.906C351.498 288.007 350.928 288.291 350.476 288.719C350.025 289.148 349.713 289.702 349.58 290.311C349.448 290.919 349.501 291.553 349.733 292.131C349.965 292.709 350.365 293.203 350.882 293.551C351.398 293.898 352.007 294.083 352.63 294.08C353.03 294.111 353.433 294.057 353.811 293.923C354.189 293.789 354.535 293.576 354.826 293.3C355.118 293.023 355.348 292.689 355.501 292.318C355.655 291.947 355.729 291.548 355.719 291.146Z" fill="#263238"/>
<path d="M359.658 294.81C359.656 294.657 359.684 294.506 359.742 294.364C359.799 294.223 359.885 294.095 359.993 293.987C360.102 293.879 360.231 293.795 360.373 293.738C360.515 293.682 360.666 293.655 360.819 293.659C361.127 293.659 361.422 293.781 361.64 293.999C361.858 294.216 361.98 294.511 361.98 294.819C361.98 295.127 361.858 295.422 361.64 295.64C361.422 295.858 361.127 295.98 360.819 295.98C360.666 295.981 360.513 295.952 360.371 295.893C360.229 295.835 360.1 295.749 359.992 295.64C359.884 295.531 359.799 295.401 359.742 295.259C359.684 295.116 359.656 294.964 359.658 294.81Z" fill="#263238"/>
<path d="M363.516 294.81C363.513 294.657 363.542 294.506 363.599 294.364C363.657 294.223 363.742 294.095 363.851 293.987C363.959 293.879 364.088 293.795 364.23 293.738C364.372 293.682 364.524 293.655 364.677 293.659C364.984 293.659 365.28 293.781 365.497 293.999C365.715 294.216 365.837 294.511 365.837 294.819C365.837 295.127 365.715 295.422 365.497 295.64C365.28 295.858 364.984 295.98 364.677 295.98C364.523 295.981 364.371 295.952 364.229 295.893C364.087 295.835 363.958 295.749 363.85 295.64C363.742 295.531 363.656 295.401 363.599 295.259C363.542 295.116 363.513 294.964 363.516 294.81Z" fill="#263238"/>
<path d="M367.373 294.81C367.371 294.657 367.399 294.506 367.457 294.364C367.514 294.223 367.6 294.095 367.708 293.987C367.817 293.879 367.946 293.795 368.088 293.738C368.229 293.682 368.381 293.655 368.534 293.659C368.842 293.659 369.137 293.781 369.355 293.999C369.572 294.216 369.695 294.511 369.695 294.819C369.695 295.127 369.572 295.422 369.355 295.64C369.137 295.858 368.842 295.98 368.534 295.98C368.38 295.981 368.228 295.952 368.086 295.893C367.944 295.835 367.815 295.749 367.707 295.64C367.599 295.531 367.514 295.401 367.456 295.259C367.399 295.116 367.371 294.964 367.373 294.81Z" fill="#263238"/>
<path d="M268.845 201.888V207.545H274.503V201.888V196.221H268.845V201.888Z" fill="#263238"/>
<path d="M274.503 167.932H268.845V173.589H274.503V167.932Z" fill="#263238"/>
<path d="M309.472 230.229H303.814V235.886H309.472V230.229Z" fill="#263238"/>
<path d="M274.503 179.246V184.903H268.845V190.561H274.503V196.219H280.161H285.827V201.885H291.485V196.219H297.143V190.561V184.903H291.485V190.561H285.827H280.161V184.903V179.246V173.588H274.503V179.246Z" fill="#263238"/>
<path d="M285.827 167.932H280.16V173.589H285.827H291.485V167.932H285.827Z" fill="#263238"/>
<path d="M311.291 213.421H314.325V207.764H311.291H308.247V213.421H311.291Z" fill="#263238"/>
<path d="M297.142 173.588H291.484V179.246H297.142V173.588Z" fill="#263238"/>
<path d="M336.754 196.221H331.097V201.878H336.754V196.221Z" fill="#263238"/>
<path d="M342.413 133.975H336.755V139.632H342.413V133.975Z" fill="#263238"/>
<path d="M308.458 179.246V173.589H314.116V167.931H308.458V162.273H302.8V167.931H297.143V173.589H302.8V179.246V184.904V190.562V196.219H308.458V190.562V184.904H314.116V179.246H308.458Z" fill="#263238"/>
<path d="M336.754 235.831H342.412V230.174H336.754H331.097V235.831H336.754Z" fill="#263238"/>
<path d="M331.098 133.975H325.44V139.632H331.098V133.975Z" fill="#263238"/>
<path d="M329.681 179.247V173.589H324.023V167.932H318.365V173.589V179.247H312.708V184.905H318.365H324.023V179.247H329.681Z" fill="#263238"/>
<path d="M361.616 167.932H355.958V173.589H361.616V167.932Z" fill="#263238"/>
<path d="M302.964 196.221H297.307V201.878H302.964V196.221Z" fill="#263238"/>
<path d="M325.44 162.275V156.617H331.097V150.95H336.755H342.413V145.292H336.755V139.635H331.097V145.292H325.44V150.95H319.773V156.617H314.115V162.275H319.773H325.44Z" fill="#263238"/>
<path d="M325.44 201.885V196.218H331.097V190.561H325.44H319.773V196.218H314.115V201.885H319.773H325.44Z" fill="#263238"/>
<path d="M342.413 224.516V218.849H336.755H331.097V213.191H325.44V218.849H319.773V224.516H314.115H308.458V230.174H314.115H319.773H325.44V224.516H331.097V230.174H336.755V224.516H342.413Z" fill="#263238"/>
<path d="M319.773 139.632V133.975H314.115H308.457V139.632H302.8V145.29H308.457H314.115V139.632H319.773Z" fill="#263238"/>
<path d="M319.773 145.291H314.115V150.949H319.773V145.291Z" fill="#263238"/>
<path d="M333.921 167.932H328.264V173.59V179.248V184.905H333.921H339.579V179.248H333.921V173.59H339.579V167.932H345.237V162.275H339.579V156.617H333.921V162.275V167.932Z" fill="#263238"/>
<path d="M314.115 150.949H308.458V156.607H314.115V150.949Z" fill="#263238"/>
<path d="M331.097 207.544V213.202H336.754H342.412V207.544H348.07H353.727V201.887H348.07H342.412H336.754V207.544H331.097Z" fill="#263238"/>
<path d="M361.616 184.904H355.958V190.562H361.616V184.904Z" fill="#263238"/>
<path d="M342.413 190.561H336.755V196.218H342.413V190.561Z" fill="#263238"/>
<path d="M356.562 173.588H350.904H345.237V179.246H350.904V184.903H356.562V179.246V173.588Z" fill="#263238"/>
<path d="M353.728 190.561H348.07V196.218H353.728V190.561Z" fill="#263238"/>
<path d="M291.485 224.626H308.467V201.877H285.717V207.544H280.169V213.201H285.717V218.859H280.169V224.517H285.717V224.626H285.827V230.174H280.169V241.49H285.827V235.814H291.485V224.626ZM304.107 206.228V220.376H289.958V206.228H304.107Z" fill="#263238"/>
<path d="M365.044 201.888H370.701V196.221H365.044H359.386H353.729V201.888H359.386H365.044Z" fill="#263238"/>
<path d="M365.044 179.247H370.702V173.589V167.932H365.044V173.589V179.247Z" fill="#263238"/>
<path d="M319.992 207.764H314.325V213.421V219.079H319.992V213.421V207.764Z" fill="#263238"/>
<path d="M376.359 201.887H370.701V207.544H376.359V201.887Z" fill="#263238"/>
<path d="M376.368 190.562V184.904H370.701V190.562V196.22H376.368V190.562Z" fill="#263238"/>
<path d="M274.503 230.174H268.845V235.831V241.489H274.503V235.831V230.174Z" fill="#263238"/>
<path d="M376.368 162.273V133.939H348.034V162.273H376.368ZM352.312 158.023V138.217H372.118V158.023H352.312Z" fill="#263238"/>
<path d="M367.877 142.467H356.562V153.782H367.877V142.467Z" fill="#263238"/>
<path d="M376.368 213.201H348.034V241.489H376.368V213.201ZM352.312 237.249V217.442H372.118V237.249H352.312Z" fill="#263238"/>
<path d="M367.877 221.684H356.562V232.999H367.877V221.684Z" fill="#263238"/>
<path d="M268.781 133.975V162.309H297.051V133.975H268.781ZM292.828 138.216V158.022H273.022V138.216H292.828Z" fill="#263238"/>
<path d="M288.579 142.467H277.263V153.782H288.579V142.467Z" fill="#263238"/>
<path d="M260.71 153.7V133.592C260.581 131.747 261.149 129.921 262.3 128.473C262.99 127.712 263.839 127.113 264.787 126.718C265.735 126.323 266.758 126.142 267.784 126.188H288.916C289.083 126.188 289.244 126.122 289.362 126.004C289.48 125.886 289.547 125.725 289.547 125.558C289.547 125.391 289.48 125.23 289.362 125.112C289.244 124.994 289.083 124.927 288.916 124.927H268.04C266.272 124.838 264.518 125.281 263.004 126.198C261.916 126.922 261.022 127.903 260.4 129.053C259.779 130.204 259.449 131.489 259.439 132.797C259.385 136.105 259.439 139.423 259.439 142.723V153.691C259.458 153.846 259.533 153.989 259.65 154.093C259.767 154.197 259.918 154.254 260.075 154.254C260.231 154.254 260.382 154.197 260.499 154.093C260.616 153.989 260.691 153.846 260.71 153.691V153.7Z" fill="#0C75FF"/>
<path d="M287.088 251.05H266.98C265.136 251.174 263.311 250.607 261.862 249.459C261.102 248.769 260.503 247.92 260.108 246.972C259.713 246.024 259.532 245.001 259.577 243.975V222.816C259.577 222.649 259.51 222.489 259.392 222.37C259.274 222.252 259.114 222.186 258.946 222.186C258.779 222.186 258.619 222.252 258.5 222.37C258.382 222.489 258.316 222.649 258.316 222.816V243.719C258.228 245.487 258.67 247.241 259.586 248.756C260.311 249.843 261.291 250.736 262.442 251.356C263.593 251.976 264.878 252.304 266.185 252.311C269.494 252.366 272.802 252.311 276.111 252.311H287.079C287.246 252.311 287.407 252.245 287.525 252.126C287.643 252.008 287.71 251.848 287.71 251.68C287.71 251.513 287.643 251.353 287.525 251.234C287.407 251.116 287.246 251.05 287.079 251.05H287.088Z" fill="#0C75FF"/>
<path d="M383.826 222.616V242.724C383.955 244.569 383.387 246.395 382.236 247.842C381.547 248.604 380.698 249.204 379.75 249.599C378.801 249.994 377.778 250.174 376.752 250.127H355.593C355.425 250.127 355.265 250.193 355.147 250.312C355.028 250.43 354.962 250.59 354.962 250.758C354.962 250.925 355.028 251.085 355.147 251.204C355.265 251.322 355.425 251.388 355.593 251.388H376.496C378.264 251.477 380.018 251.035 381.532 250.118C382.62 249.393 383.513 248.413 384.133 247.262C384.753 246.111 385.081 244.826 385.087 243.519C385.151 240.21 385.087 236.901 385.087 233.593V222.625C385.087 222.458 385.021 222.297 384.903 222.179C384.784 222.061 384.624 221.994 384.457 221.994C384.289 221.994 384.129 222.061 384.011 222.179C383.892 222.297 383.826 222.458 383.826 222.625V222.616Z" fill="#0C75FF"/>
<path d="M355.958 126.198H376.066C377.913 126.072 379.739 126.642 381.185 127.797C381.949 128.485 382.55 129.333 382.945 130.282C383.34 131.23 383.519 132.255 383.47 133.281V154.468C383.47 154.635 383.536 154.795 383.655 154.914C383.773 155.032 383.933 155.098 384.1 155.098C384.268 155.098 384.428 155.032 384.546 154.914C384.665 154.795 384.731 154.635 384.731 154.468V133.537C384.82 131.766 384.378 130.009 383.461 128.492C382.736 127.404 381.755 126.511 380.605 125.891C379.454 125.271 378.169 124.943 376.862 124.936C373.553 124.882 370.244 124.936 366.936 124.936H355.968C355.8 124.936 355.64 125.003 355.522 125.121C355.403 125.239 355.337 125.4 355.337 125.567C355.337 125.734 355.403 125.895 355.522 126.013C355.64 126.131 355.8 126.198 355.968 126.198H355.958Z" fill="#0C75FF"/>
</svg>
